<svg xmlns="http://www.w3.org/2000/svg" viewBox="0 0 100 100" fill="none">
  <rect width="100" height="100" rx="22" fill="#0066ff"/>
  <path d="M50 15
    C50 15 62 28 62 40
    C62 46 58 50 54 52
    C56 44 52 38 48 34
    C48 34 50 48 40 56
    C36 60 34 65 34 70
    C34 80 42 88 52 88
    C62 88 70 80 70 70
    C70 58 62 52 58 44
    C64 50 68 58 68 70
    C68 82 60 92 50 92
    C38 92 28 82 28 70
    C28 58 36 50 42 42
    C38 50 38 58 42 64
    C36 58 32 50 32 40
    C32 26 42 18 50 15Z"
    fill="white" opacity="0.95"/>
</svg>
